<?xml version="1.0" encoding="UTF-8" standalone="no"?>
<!DOCTYPE svg PUBLIC "-//W3C//DTD SVG 1.1//EN" "http://www.w3.org/Graphics/SVG/1.1/DTD/svg11.dtd">
<svg xmlns="http://www.w3.org/2000/svg" version="1.1" viewBox="0.00 0.00 250.00 100.00">
<path fill="#000000" d="
  M 246.02 91.18
  A 4.24 4.24 0.0 0 1 241.78 95.42
  L 8.26 95.42
  A 4.24 4.24 0.0 0 1 4.02 91.18
  L 4.02 8.46
  A 4.24 4.24 0.0 0 1 8.26 4.22
  L 241.78 4.22
  A 4.24 4.24 0.0 0 1 246.02 8.46
  L 246.02 91.18
  Z
  M 243.78 9.00
  A 1.78 1.78 0.0 0 0 242.00 7.22
  L 8.80 7.22
  A 1.78 1.78 0.0 0 0 7.02 9.00
  L 7.02 90.64
  A 1.78 1.78 0.0 0 0 8.80 92.42
  L 242.00 92.42
  A 1.78 1.78 0.0 0 0 243.78 90.64
  L 243.78 9.00
  Z"
/>
<path fill="#000000" d="
  M 136.00 82.06
  A 4.72 4.72 0.0 0 1 131.28 86.78
  L 19.30 86.78
  A 4.72 4.72 0.0 0 1 14.58 82.06
  L 14.58 17.30
  A 4.72 4.72 0.0 0 1 19.30 12.58
  L 131.28 12.58
  A 4.72 4.72 0.0 0 1 136.00 17.30
  L 136.00 82.06
  Z
  M 58.78 53.83
  C 55.50 61.27 44.84 61.49 41.16 54.22
  C 38.40 48.74 41.59 41.50 47.73 40.35
  Q 54.95 39.00 58.44 45.30
  Q 58.73 45.81 59.32 45.80
  L 61.20 45.77
  Q 61.83 45.75 61.61 45.17
  C 57.23 33.39 39.88 34.46 37.42 47.16
  C 34.30 63.32 56.42 68.79 61.95 54.08
  Q 62.16 53.51 61.56 53.48
  L 59.53 53.37
  Q 59.00 53.34 58.78 53.83
  Z
  M 84.34 55.80
  C 84.41 61.20 73.42 60.95 71.97 55.29
  A 1.42 1.42 0.0 0 0 69.18 55.59
  C 68.90 63.83 85.39 65.38 87.25 57.50
  C 89.18 49.33 79.66 48.92 74.49 46.75
  C 71.27 45.39 71.85 41.19 74.80 40.46
  C 78.47 39.55 82.81 39.76 84.06 44.03
  A 1.48 1.47 36.3 0 0 86.95 43.59
  C 86.79 33.37 64.57 35.63 69.91 46.67
  C 72.51 52.03 84.26 50.17 84.34 55.80
  Z
  M 113.14 55.09
  C 112.35 46.25 95.29 49.93 98.40 42.14
  Q 98.57 41.70 98.97 41.44
  C 102.15 39.44 109.13 39.09 109.65 44.18
  A 0.60 0.59 -2.6 0 0 110.25 44.72
  L 112.22 44.73
  Q 112.74 44.74 112.71 44.22
  C 112.22 34.44 95.13 34.64 94.99 43.77
  C 94.89 49.81 102.21 50.85 107.11 52.15
  C 111.16 53.22 111.17 58.24 106.75 59.33
  Q 99.63 61.07 97.64 55.18
  A 1.41 1.41 0.0 0 0 94.89 55.56
  C 94.43 64.40 114.10 65.77 113.14 55.09
  Z"
/>
<path fill="#000000" d="
  M 166.08 36.75
  L 173.30 36.76
  A 0.32 0.32 0.0 0 1 173.60 37.19
  L 164.53 61.23
  A 0.32 0.32 0.0 0 1 164.23 61.44
  L 157.29 61.45
  A 0.32 0.32 0.0 0 1 156.99 61.24
  L 147.88 37.18
  A 0.32 0.32 0.0 0 1 148.18 36.75
  L 155.48 36.76
  A 0.32 0.32 0.0 0 1 155.79 36.97
  L 160.45 50.09
  A 0.32 0.32 0.0 0 0 161.05 50.09
  L 165.77 36.96
  A 0.32 0.32 0.0 0 1 166.08 36.75
  Z"
/>
<rect fill="#000000" x="176.41" y="36.76" width="7.18" height="24.68" rx="0.41"/>
<path fill="#000000" d="
  M 207.42 49.10
  C 213.15 53.51 209.90 60.93 203.12 61.39
  Q 199.64 61.63 189.20 61.38
  Q 188.78 61.37 188.78 60.96
  L 188.78 37.28
  Q 188.78 36.85 189.21 36.83
  C 195.04 36.60 203.96 35.91 207.01 38.20
  C 210.48 40.80 210.38 45.36 207.37 48.33
  Q 206.96 48.74 207.42 49.10
  Z
  M 201.8633 43.1461
  A 1.06 1.06 0.0 0 0 200.8164 42.0733
  L 197.0367 42.0271
  A 1.06 1.06 0.0 0 0 195.9638 43.0740
  L 195.9367 45.2939
  A 1.06 1.06 0.0 0 0 196.9836 46.3667
  L 200.7633 46.4129
  A 1.06 1.06 0.0 0 0 201.8362 45.3660
  L 201.8633 43.1461
  Z
  M 202.59 52.77
  A 1.16 1.16 0.0 0 0 201.43 51.61
  L 197.09 51.61
  A 1.16 1.16 0.0 0 0 195.93 52.77
  L 195.93 54.99
  A 1.16 1.16 0.0 0 0 197.09 56.15
  L 201.43 56.15
  A 1.16 1.16 0.0 0 0 202.59 54.99
  L 202.59 52.77
  Z"
/>
<path fill="#000000" d="
  M 221.22 52.22
  L 221.22 54.96
  A 0.45 0.45 0.0 0 0 221.67 55.41
  L 231.10 55.42
  A 0.45 0.45 0.0 0 1 231.55 55.87
  L 231.56 60.99
  A 0.45 0.45 0.0 0 1 231.11 61.44
  L 214.17 61.45
  A 0.45 0.45 0.0 0 1 213.72 61.00
  L 213.72 37.17
  A 0.45 0.45 0.0 0 1 214.17 36.72
  L 230.74 36.73
  A 0.45 0.45 0.0 0 1 231.19 37.18
  L 231.18 42.00
  A 0.45 0.45 0.0 0 1 230.73 42.45
  L 221.66 42.47
  A 0.45 0.45 0.0 0 0 221.21 42.92
  L 221.23 45.60
  A 0.45 0.45 0.0 0 0 221.68 46.05
  L 229.73 45.99
  A 0.45 0.45 0.0 0 1 230.18 46.44
  L 230.24 51.33
  A 0.45 0.45 0.0 0 1 229.78 51.79
  L 221.67 51.77
  A 0.45 0.45 0.0 0 0 221.22 52.22
  Z"
/>
</svg>
