<?xml version="1.0" encoding="UTF-8" standalone="no"?>
<!DOCTYPE svg PUBLIC "-//W3C//DTD SVG 1.1//EN" "http://www.w3.org/Graphics/SVG/1.1/DTD/svg11.dtd">
<svg xmlns="http://www.w3.org/2000/svg" version="1.1" viewBox="0.00 0.00 327.00 200.00">
<g stroke-width="2.00" fill="none" stroke-linecap="butt">
<path stroke="#403f42" vector-effect="non-scaling-stroke" d="
  M 96.48 24.99
  Q 98.72 26.18 100.82 25.34"
/>
<path stroke="#403f42" vector-effect="non-scaling-stroke" d="
  M 103.83 25.81
  Q 105.56 27.09 106.98 26.60"
/>
<path stroke="#403f42" vector-effect="non-scaling-stroke" d="
  M 108.46 26.84
  L 115.28 28.26"
/>
<path stroke="#403f42" vector-effect="non-scaling-stroke" d="
  M 117.08 28.91
  Q 120.10 30.72 123.36 31.97
  Q 127.75 33.64 129.72 34.79
  Q 137.36 39.22 144.48 44.64"
/>
<path stroke="#403f42" vector-effect="non-scaling-stroke" d="
  M 151.87 54.07
  Q 149.70 54.39 148.97 56.42"
/>
<path stroke="#403f42" vector-effect="non-scaling-stroke" d="
  M 148.24 57.32
  Q 144.88 59.46 141.97 62.18
  C 135.74 68.00 129.18 73.45 123.03 79.36
  C 122.50 79.87 121.94 79.92 121.27 79.91"
/>
<path stroke="#403f42" vector-effect="non-scaling-stroke" d="
  M 120.41 79.29
  Q 120.96 79.04 120.63 78.64
  C 117.34 74.70 109.49 67.14 103.94 66.41"
/>
<path stroke="#403f42" vector-effect="non-scaling-stroke" d="
  M 103.54 66.41
  Q 103.53 65.72 102.77 65.46
  Q 98.15 63.83 92.76 64.23"
/>
<path stroke="#403f42" vector-effect="non-scaling-stroke" d="
  M 90.25 64.25
  Q 84.92 63.95 79.25 65.27
  Q 78.25 65.51 77.79 66.31"
/>
<path stroke="#403f42" vector-effect="non-scaling-stroke" d="
  M 76.51 66.64
  Q 71.34 68.56 66.38 73.38
  Q 65.48 74.25 65.65 74.89"
/>
<path stroke="#403f42" vector-effect="non-scaling-stroke" d="
  M 65.27 75.44
  Q 63.11 76.84 62.34 78.26
  Q 52.89 95.73 59.75 114.43
  Q 63.75 125.29 74.50 131.22
  Q 78.09 133.20 80.67 133.26"
/>
<path stroke="#403f42" vector-effect="non-scaling-stroke" d="
  M 82.77 133.89
  Q 89.77 135.14 96.75 134.33
  Q 97.91 134.20 98.65 133.49"
/>
<path stroke="#403f42" vector-effect="non-scaling-stroke" d="
  M 99.53 133.44
  Q 103.75 133.08 107.51 130.37"
/>
<path stroke="#403f42" vector-effect="non-scaling-stroke" d="
  M 108.25 129.73
  C 112.68 128.49 117.41 123.09 120.55 120.02
  A 2.36 2.36 0.0 0 1 123.76 119.94
  L 151.24 144.36
  A 1.14 1.14 0.0 0 1 151.28 146.04
  Q 150.22 147.06 149.48 148.85"
/>
<path stroke="#403f42" vector-effect="non-scaling-stroke" d="
  M 148.98 149.31
  Q 137.86 160.65 123.47 166.91
  Q 121.15 167.92 116.38 169.30
  Q 112.78 170.35 109.27 171.66"
/>
<path stroke="#403f42" vector-effect="non-scaling-stroke" d="
  M 97.51 173.63
  Q 90.00 172.97 82.39 173.73"
/>
<path stroke="#403f42" vector-effect="non-scaling-stroke" d="
  M 67.02 171.68
  C 63.58 169.91 58.90 168.83 56.36 167.87
  Q 26.08 156.39 13.79 126.87
  Q 12.31 123.31 11.16 117.70
  Q 10.20 113.05 9.04 108.36"
/>
<path stroke="#403f42" vector-effect="non-scaling-stroke" d="
  M 9.05 90.41
  L 11.84 75.86"
/>
<path stroke="#403f42" vector-effect="non-scaling-stroke" d="
  M 12.15 74.50
  Q 12.17 74.68 12.27 74.73
  Q 12.43 74.84 12.50 74.66
  Q 14.40 69.96 16.53 65.37
  Q 16.60 65.21 16.57 65.11
  Q 16.52 64.94 16.29 64.96"
/>
<path stroke="#403f42" vector-effect="non-scaling-stroke" d="
  M 16.45 64.76
  Q 18.30 62.88 17.83 61.88"
/>
<path stroke="#403f42" vector-effect="non-scaling-stroke" d="
  M 42.86 36.58
  Q 46.00 35.52 48.93 33.91
  Q 52.44 32.00 54.89 31.20
  Q 61.79 28.97 68.84 26.65"
/>
<path stroke="#403f42" vector-effect="non-scaling-stroke" d="
  M 69.81 26.59
  Q 72.27 27.10 72.76 25.81"
/>
<path stroke="#403f42" vector-effect="non-scaling-stroke" d="
  M 76.20 25.45
  Q 78.46 26.11 80.75 24.97"
/>
<path stroke="#403f42" vector-effect="non-scaling-stroke" d="
  M 153.21 32.27
  Q 153.85 34.12 153.62 36.35"
/>
<path stroke="#403f42" vector-effect="non-scaling-stroke" d="
  M 160.95 32.46
  Q 168.44 33.14 180.25 32.63
  Q 188.21 32.29 201.50 33.32
  Q 203.71 33.50 204.56 35.65
  Q 211.79 54.11 224.44 84.48
  Q 230.11 98.09 235.51 111.81
  Q 236.07 113.24 237.03 114.21
  A 1.02 1.02 0.0 0 0 238.70 113.87
  Q 244.19 100.46 249.71 87.03
  Q 250.09 86.11 251.00 83.36
  C 252.01 80.33 254.17 76.53 255.00 74.50
  Q 259.79 62.85 268.78 41.82
  Q 271.50 35.47 273.06 32.37"
/>
<path stroke="#403f42" vector-effect="non-scaling-stroke" d="
  M 318.95 32.39
  L 259.47 171.96
  A 1.81 1.80 -78.4 0 1 257.81 173.06
  L 213.19 173.03
  A 1.18 1.16 78.0 0 1 212.12 172.32
  L 160.42 51.29
  Q 160.27 50.96 160.03 51.23
  Q 159.83 51.43 159.86 51.72"
/>
<path stroke="#403f42" vector-effect="non-scaling-stroke" d="
  M 158.63 47.59
  Q 157.92 43.91 156.01 40.61
  C 155.47 39.67 154.45 39.29 154.57 37.86
  Q 154.61 37.35 154.16 37.11
  Q 153.94 36.99 153.68 36.98"
/>
<path stroke="#403f42" vector-effect="non-scaling-stroke" d="
  M 21.42 67.36
  Q 15.69 77.46 13.95 89.75
  Q 12.31 101.33 14.91 112.70
  Q 15.14 113.68 15.53 114.52"
/>
<path stroke="#403f42" vector-effect="non-scaling-stroke" d="
  M 15.79 116.09
  Q 16.41 122.00 17.88 124.85
  C 20.29 129.53 22.63 134.77 25.43 138.79
  Q 34.64 152.00 48.97 159.08"
/>
<path stroke="#403f42" vector-effect="non-scaling-stroke" d="
  M 48.86 158.95
  Q 52.21 161.65 56.67 162.41"
/>
<path stroke="#403f42" vector-effect="non-scaling-stroke" d="
  M 58.30 162.63
  Q 57.85 163.39 58.59 163.70
  C 60.72 164.58 62.96 164.50 65.01 165.43
  Q 70.90 168.08 77.33 167.31"
/>
<path stroke="#403f42" vector-effect="non-scaling-stroke" d="
  M 94.09 167.88
  Q 101.14 168.54 107.46 167.10
  Q 112.06 166.04 120.09 163.13
  Q 132.37 158.69 141.88 149.38
  Q 142.83 148.45 142.51 147.99"
/>
<path stroke="#403f42" vector-effect="non-scaling-stroke" d="
  M 143.16 147.45
  Q 143.49 148.02 144.16 147.16
  Q 145.27 145.73 144.10 145.18"
/>
<path stroke="#403f42" vector-effect="non-scaling-stroke" d="
  M 141.56 142.76
  Q 138.78 139.12 134.98 136.70"
/>
<path stroke="#403f42" vector-effect="non-scaling-stroke" d="
  M 134.34 136.16
  L 123.15 125.95
  A 1.04 1.04 0.0 0 0 121.74 125.95
  Q 118.00 129.39 113.85 132.85
  Q 111.22 135.04 101.51 138.38
  Q 100.52 138.72 100.71 139.09"
/>
<path stroke="#403f42" vector-effect="non-scaling-stroke" d="
  M 97.74 139.70
  Q 94.98 139.26 92.73 140.17"
/>
<path stroke="#403f42" vector-effect="non-scaling-stroke" d="
  M 80.82 138.85
  Q 68.76 135.39 61.08 126.83"
/>
<path stroke="#403f42" vector-effect="non-scaling-stroke" d="
  M 60.32 126.39
  Q 60.73 126.28 60.81 126.17
  Q 60.85 126.14 60.64 125.86
  Q 53.16 115.71 52.75 104.73
  Q 52.40 95.23 52.76 92.51
  Q 54.21 81.45 60.54 72.23"
/>
<path stroke="#403f42" vector-effect="non-scaling-stroke" d="
  M 67.20 65.58
  Q 69.58 64.84 71.35 62.99"
/>
<path stroke="#403f42" vector-effect="non-scaling-stroke" d="
  M 73.16 61.62
  Q 74.83 62.00 76.28 60.78"
/>
<path stroke="#403f42" vector-effect="non-scaling-stroke" d="
  M 78.23 60.05
  Q 78.15 60.31 78.34 60.41
  Q 78.46 60.48 78.66 60.42
  Q 91.17 57.11 103.21 60.72"
/>
<path stroke="#403f42" vector-effect="non-scaling-stroke" d="
  M 103.21 60.72
  Q 113.51 64.22 120.99 72.09
  A 1.76 1.75 -43.1 0 0 123.45 72.17
  L 133.36 62.99"
/>
<path stroke="#403f42" vector-effect="non-scaling-stroke" d="
  M 135.26 61.40
  L 139.67 57.45"
/>
<path stroke="#403f42" vector-effect="non-scaling-stroke" d="
  M 142.82 54.36
  Q 145.64 54.41 144.11 51.60
  Q 143.46 50.41 143.22 50.93"
/>
<path stroke="#403f42" vector-effect="non-scaling-stroke" d="
  M 142.43 50.14
  Q 141.37 47.66 138.93 47.00"
/>
<path stroke="#403f42" vector-effect="non-scaling-stroke" d="
  M 138.75 46.68
  Q 135.93 43.43 131.28 40.78
  C 124.56 36.96 116.58 32.70 109.40 32.35"
/>
<path stroke="#403f42" vector-effect="non-scaling-stroke" d="
  M 108.52 32.31
  Q 108.56 32.17 108.61 32.04
  A 0.09 0.09 0.0 0 0 108.56 31.93
  Q 103.76 30.30 98.86 30.87"
/>
<path stroke="#403f42" vector-effect="non-scaling-stroke" d="
  M 77.11 31.03
  L 76.49 30.81
  Q 76.02 30.65 75.53 30.70
  Q 64.83 31.90 56.78 35.55
  Q 47.26 39.87 41.86 43.36
  C 40.50 44.24 38.94 46.15 37.24 47.39
  C 31.19 51.79 27.11 58.10 22.66 63.98
  Q 22.13 64.67 22.18 66.18"
/>
</g>
<path fill="#000000" d="
  M 96.48 24.99
  Q 98.72 26.18 100.82 25.34
  L 103.83 25.81
  Q 105.56 27.09 106.98 26.60
  L 108.46 26.84
  L 115.28 28.26
  Q 116.38 27.98 117.08 28.91
  Q 120.10 30.72 123.36 31.97
  Q 127.75 33.64 129.72 34.79
  Q 137.36 39.22 144.48 44.64
  Q 148.19 47.48 151.40 51.37
  Q 151.91 51.99 152.08 52.61
  Q 152.42 53.82 151.87 54.07
  Q 149.70 54.39 148.97 56.42
  Q 148.58 57.31 148.24 57.32
  Q 144.88 59.46 141.97 62.18
  C 135.74 68.00 129.18 73.45 123.03 79.36
  C 122.50 79.87 121.94 79.92 121.27 79.91
  L 120.41 79.29
  Q 120.96 79.04 120.63 78.64
  C 117.34 74.70 109.49 67.14 103.94 66.41
  Q 103.47 66.00 103.54 66.41
  Q 103.53 65.72 102.77 65.46
  Q 98.15 63.83 92.76 64.23
  Q 91.74 64.55 90.25 64.25
  Q 84.92 63.95 79.25 65.27
  Q 78.25 65.51 77.79 66.31
  L 76.51 66.64
  Q 71.34 68.56 66.38 73.38
  Q 65.48 74.25 65.65 74.89
  Q 65.69 75.41 65.27 75.44
  Q 63.11 76.84 62.34 78.26
  Q 52.89 95.73 59.75 114.43
  Q 63.75 125.29 74.50 131.22
  Q 78.09 133.20 80.67 133.26
  Q 82.25 133.18 82.77 133.89
  Q 89.77 135.14 96.75 134.33
  Q 97.91 134.20 98.65 133.49
  Q 99.12 133.02 99.53 133.44
  Q 103.75 133.08 107.51 130.37
  Q 107.98 130.15 108.25 129.73
  C 112.68 128.49 117.41 123.09 120.55 120.02
  A 2.36 2.36 0.0 0 1 123.76 119.94
  L 151.24 144.36
  A 1.14 1.14 0.0 0 1 151.28 146.04
  Q 150.22 147.06 149.48 148.85
  Q 149.33 149.19 148.98 149.31
  Q 137.86 160.65 123.47 166.91
  Q 121.15 167.92 116.38 169.30
  Q 112.78 170.35 109.27 171.66
  Q 103.48 173.58 97.51 173.63
  Q 90.00 172.97 82.39 173.73
  Q 74.67 173.43 67.02 171.68
  C 63.58 169.91 58.90 168.83 56.36 167.87
  Q 26.08 156.39 13.79 126.87
  Q 12.31 123.31 11.16 117.70
  Q 10.20 113.05 9.04 108.36
  Q 7.96 99.35 9.05 90.41
  L 11.84 75.86
  L 12.15 74.50
  Q 12.17 74.68 12.27 74.73
  Q 12.43 74.84 12.50 74.66
  Q 14.40 69.96 16.53 65.37
  Q 16.60 65.21 16.57 65.11
  Q 16.52 64.94 16.29 64.96
  Q 16.25 64.70 16.45 64.76
  Q 18.30 62.88 17.83 61.88
  Q 27.20 46.01 42.86 36.58
  Q 46.00 35.52 48.93 33.91
  Q 52.44 32.00 54.89 31.20
  Q 61.79 28.97 68.84 26.65
  L 69.81 26.59
  Q 72.27 27.10 72.76 25.81
  L 76.20 25.45
  Q 78.46 26.11 80.75 24.97
  L 96.48 24.99
  Z
  M 22.18 66.18
  L 21.42 67.36
  Q 15.69 77.46 13.95 89.75
  Q 12.31 101.33 14.91 112.70
  Q 15.14 113.68 15.53 114.52
  L 15.79 116.09
  Q 16.41 122.00 17.88 124.85
  C 20.29 129.53 22.63 134.77 25.43 138.79
  Q 34.64 152.00 48.97 159.08
  Q 48.92 159.02 48.86 158.95
  Q 52.21 161.65 56.67 162.41
  Q 56.73 162.89 58.30 162.63
  Q 57.85 163.39 58.59 163.70
  C 60.72 164.58 62.96 164.50 65.01 165.43
  Q 70.90 168.08 77.33 167.31
  Q 85.74 168.43 94.09 167.88
  Q 101.14 168.54 107.46 167.10
  Q 112.06 166.04 120.09 163.13
  Q 132.37 158.69 141.88 149.38
  Q 142.83 148.45 142.51 147.99
  Q 142.32 147.36 143.16 147.45
  Q 143.49 148.02 144.16 147.16
  Q 145.27 145.73 144.10 145.18
  Q 142.31 144.06 141.56 142.76
  Q 138.78 139.12 134.98 136.70
  Q 134.73 137.47 134.34 136.16
  L 123.15 125.95
  A 1.04 1.04 0.0 0 0 121.74 125.95
  Q 118.00 129.39 113.85 132.85
  Q 111.22 135.04 101.51 138.38
  Q 100.52 138.72 100.71 139.09
  L 97.74 139.70
  Q 94.98 139.26 92.73 140.17
  Q 86.42 140.58 80.82 138.85
  Q 68.76 135.39 61.08 126.83
  Q 60.47 126.24 60.32 126.39
  Q 60.73 126.28 60.81 126.17
  Q 60.85 126.14 60.64 125.86
  Q 53.16 115.71 52.75 104.73
  Q 52.40 95.23 52.76 92.51
  Q 54.21 81.45 60.54 72.23
  Q 63.07 68.31 67.20 65.58
  Q 69.58 64.84 71.35 62.99
  L 73.16 61.62
  Q 74.83 62.00 76.28 60.78
  Q 77.80 60.82 78.23 60.05
  Q 78.15 60.31 78.34 60.41
  Q 78.46 60.48 78.66 60.42
  Q 91.17 57.11 103.21 60.72
  Q 113.51 64.22 120.99 72.09
  A 1.76 1.75 -43.1 0 0 123.45 72.17
  L 133.36 62.99
  Q 134.42 61.26 135.26 61.40
  L 139.67 57.45
  L 142.82 54.36
  Q 145.64 54.41 144.11 51.60
  Q 143.46 50.41 143.22 50.93
  L 142.43 50.14
  Q 141.37 47.66 138.93 47.00
  Q 139.02 47.66 138.75 46.68
  Q 135.93 43.43 131.28 40.78
  C 124.56 36.96 116.58 32.70 109.40 32.35
  L 108.52 32.31
  Q 108.56 32.17 108.61 32.04
  A 0.09 0.09 0.0 0 0 108.56 31.93
  Q 103.76 30.30 98.86 30.87
  L 77.11 31.03
  L 76.49 30.81
  Q 76.02 30.65 75.53 30.70
  Q 64.83 31.90 56.78 35.55
  Q 47.26 39.87 41.86 43.36
  C 40.50 44.24 38.94 46.15 37.24 47.39
  C 31.19 51.79 27.11 58.10 22.66 63.98
  Q 22.13 64.67 22.18 66.18
  Z"
/>
<path fill="#807e84" fill-opacity="0.996" d="
  M 80.75 24.97
  Q 78.46 26.11 76.20 25.45
  L 80.75 24.97
  Z"
/>
<path fill="#807e84" fill-opacity="0.996" d="
  M 96.48 24.99
  L 100.82 25.34
  Q 98.72 26.18 96.48 24.99
  Z"
/>
<path fill="#807e84" fill-opacity="0.996" d="
  M 72.76 25.81
  Q 72.27 27.10 69.81 26.59
  Q 70.59 25.38 72.76 25.81
  Z"
/>
<path fill="#807e84" fill-opacity="0.996" d="
  M 103.83 25.81
  Q 106.61 25.30 106.98 26.60
  Q 105.56 27.09 103.83 25.81
  Z"
/>
<path fill="#807e84" fill-opacity="0.996" d="
  M 68.84 26.65
  Q 61.79 28.97 54.89 31.20
  Q 52.44 32.00 48.93 33.91
  Q 46.00 35.52 42.86 36.58
  Q 54.68 29.02 68.84 26.65
  Z"
/>
<path fill="#807e84" fill-opacity="0.996" d="
  M 108.46 26.84
  Q 111.98 26.44 115.28 28.26
  L 108.46 26.84
  Z"
/>
<path fill="#807e84" fill-opacity="0.996" d="
  M 117.08 28.91
  Q 124.10 30.86 132.56 35.68
  Q 134.21 36.62 135.23 37.35
  Q 136.97 38.60 137.82 39.07
  Q 141.67 41.19 144.48 44.64
  Q 137.36 39.22 129.72 34.79
  Q 127.75 33.64 123.36 31.97
  Q 120.10 30.72 117.08 28.91
  Z"
/>
<path fill="#807e84" fill-opacity="0.996" d="
  M 77.11 31.03
  Q 40.35 35.68 22.18 66.18
  Q 22.13 64.67 22.66 63.98
  C 27.11 58.10 31.19 51.79 37.24 47.39
  C 38.94 46.15 40.50 44.24 41.86 43.36
  Q 47.26 39.87 56.78 35.55
  Q 64.83 31.90 75.53 30.70
  Q 76.02 30.65 76.49 30.81
  L 77.11 31.03
  Z"
/>
<path fill="#807e84" fill-opacity="0.996" d="
  M 108.52 32.31
  C 106.58 31.93 105.36 31.69 103.15 31.75
  Q 100.81 31.81 98.86 30.87
  Q 103.76 30.30 108.56 31.93
  A 0.09 0.09 0.0 0 1 108.61 32.04
  Q 108.56 32.17 108.52 32.31
  Z"
/>
<path fill="#807e84" fill-opacity="0.996" d="
  M 138.75 46.68
  Q 128.59 38.90 116.52 34.61
  C 114.63 33.94 111.72 33.76 109.40 32.35
  C 116.58 32.70 124.56 36.96 131.28 40.78
  Q 135.93 43.43 138.75 46.68
  Z"
/>
<path fill="#807e84" fill-opacity="0.996" d="
  M 153.21 32.27
  Q 153.85 34.12 153.62 36.35
  Q 151.89 34.22 153.21 32.27
  Z"
/>
<path fill="#000000" d="
  M 153.21 32.27
  L 160.95 32.46
  Q 168.44 33.14 180.25 32.63
  Q 188.21 32.29 201.50 33.32
  Q 203.71 33.50 204.56 35.65
  Q 211.79 54.11 224.44 84.48
  Q 230.11 98.09 235.51 111.81
  Q 236.07 113.24 237.03 114.21
  A 1.02 1.02 0.0 0 0 238.70 113.87
  Q 244.19 100.46 249.71 87.03
  Q 250.09 86.11 251.00 83.36
  C 252.01 80.33 254.17 76.53 255.00 74.50
  Q 259.79 62.85 268.78 41.82
  Q 271.50 35.47 273.06 32.37
  L 318.95 32.39
  L 259.47 171.96
  A 1.81 1.80 -78.4 0 1 257.81 173.06
  L 213.19 173.03
  A 1.18 1.16 78.0 0 1 212.12 172.32
  L 160.42 51.29
  Q 160.27 50.96 160.03 51.23
  Q 159.83 51.43 159.86 51.72
  L 158.63 47.59
  Q 157.92 43.91 156.01 40.61
  C 155.47 39.67 154.45 39.29 154.57 37.86
  Q 154.61 37.35 154.16 37.11
  Q 153.94 36.99 153.68 36.98
  Q 153.43 36.81 153.62 36.35
  Q 153.85 34.12 153.21 32.27
  Z"
/>
<path fill="#807e84" fill-opacity="0.996" d="
  M 160.95 32.46
  L 203.62 32.39
  Q 204.07 32.39 204.23 32.78
  L 237.21 112.66
  A 0.44 0.44 0.0 0 0 238.02 112.67
  L 269.82 37.06
  Q 270.01 36.62 270.43 36.38
  Q 270.91 36.13 270.76 35.69
  Q 270.65 35.33 270.76 34.98
  Q 271.44 32.78 273.06 32.37
  Q 271.50 35.47 268.78 41.82
  Q 259.79 62.85 255.00 74.50
  C 254.17 76.53 252.01 80.33 251.00 83.36
  Q 250.09 86.11 249.71 87.03
  Q 244.19 100.46 238.70 113.87
  A 1.02 1.02 0.0 0 1 237.03 114.21
  Q 236.07 113.24 235.51 111.81
  Q 230.11 98.09 224.44 84.48
  Q 211.79 54.11 204.56 35.65
  Q 203.71 33.50 201.50 33.32
  Q 188.21 32.29 180.25 32.63
  Q 168.44 33.14 160.95 32.46
  Z"
/>
<path fill="#807e84" fill-opacity="0.996" d="
  M 318.95 32.39
  Q 319.41 33.21 319.30 33.47
  Q 300.73 76.95 282.32 120.50
  Q 271.37 146.42 260.04 172.87
  Q 259.45 174.25 257.95 174.25
  Q 238.16 174.31 217.85 174.24
  C 214.39 174.23 211.46 174.91 210.33 170.89
  Q 209.60 168.29 209.07 167.29
  C 207.79 164.85 206.73 161.73 205.95 159.89
  Q 182.87 105.82 159.86 51.72
  Q 159.83 51.43 160.03 51.23
  Q 160.27 50.96 160.42 51.29
  L 212.12 172.32
  A 1.18 1.16 78.0 0 0 213.19 173.03
  L 257.81 173.06
  A 1.81 1.80 -78.4 0 0 259.47 171.96
  L 318.95 32.39
  Z"
/>
<path fill="#807e84" fill-opacity="0.996" d="
  M 153.68 36.98
  Q 153.94 36.99 154.16 37.11
  Q 154.61 37.35 154.57 37.86
  C 154.45 39.29 155.47 39.67 156.01 40.61
  Q 157.92 43.91 158.63 47.59
  L 153.68 36.98
  Z"
/>
<path fill="#807e84" fill-opacity="0.996" d="
  M 142.43 50.14
  L 138.93 47.00
  Q 141.37 47.66 142.43 50.14
  Z"
/>
<path fill="#807e84" fill-opacity="0.996" d="
  M 142.82 54.36
  Q 144.93 52.99 143.22 50.93
  Q 143.46 50.41 144.11 51.60
  Q 145.64 54.41 142.82 54.36
  Z"
/>
<path fill="#807e84" fill-opacity="0.996" d="
  M 151.87 54.07
  Q 150.74 55.95 148.97 56.42
  Q 149.70 54.39 151.87 54.07
  Z"
/>
<path fill="#807e84" fill-opacity="0.996" d="
  M 148.24 57.32
  Q 136.52 68.01 124.64 78.39
  Q 122.50 80.27 121.27 79.91
  C 121.94 79.92 122.50 79.87 123.03 79.36
  C 129.18 73.45 135.74 68.00 141.97 62.18
  Q 144.88 59.46 148.24 57.32
  Z"
/>
<path fill="#807e84" fill-opacity="0.996" d="
  M 139.67 57.45
  L 135.26 61.40
  Q 137.11 58.48 139.67 57.45
  Z"
/>
<path fill="#807e84" fill-opacity="0.996" d="
  M 103.21 60.72
  Q 91.17 57.11 78.66 60.42
  Q 78.46 60.48 78.34 60.41
  Q 78.15 60.31 78.23 60.05
  Q 85.84 57.58 93.81 57.92
  Q 95.43 57.99 98.01 58.81
  Q 100.08 59.47 102.26 59.76
  Q 102.88 59.84 103.21 60.72
  Z"
/>
<path fill="#807e84" fill-opacity="0.996" d="
  M 76.28 60.78
  Q 74.83 62.00 73.16 61.62
  Q 74.50 60.53 76.28 60.78
  Z"
/>
<path fill="#807e84" fill-opacity="0.996" d="
  M 103.21 60.72
  Q 105.64 60.57 106.85 61.18
  Q 114.96 65.23 120.96 70.83
  A 2.59 2.58 45.8 0 0 124.44 70.88
  L 133.36 62.99
  L 123.45 72.17
  A 1.76 1.75 -43.1 0 1 120.99 72.09
  Q 113.51 64.22 103.21 60.72
  Z"
/>
<path fill="#807e84" fill-opacity="0.996" d="
  M 17.83 61.88
  Q 18.30 62.88 16.45 64.76
  Q 16.72 63.22 17.83 61.88
  Z"
/>
<path fill="#807e84" fill-opacity="0.996" d="
  M 71.35 62.99
  Q 69.58 64.84 67.20 65.58
  Q 68.88 63.95 71.35 62.99
  Z"
/>
<path fill="#807e84" fill-opacity="0.996" d="
  M 90.25 64.25
  L 77.79 66.31
  Q 78.25 65.51 79.25 65.27
  Q 84.92 63.95 90.25 64.25
  Z"
/>
<path fill="#807e84" fill-opacity="0.996" d="
  M 103.54 66.41
  L 92.76 64.23
  Q 98.15 63.83 102.77 65.46
  Q 103.53 65.72 103.54 66.41
  Z"
/>
<path fill="#807e84" fill-opacity="0.996" d="
  M 16.29 64.96
  Q 16.52 64.94 16.57 65.11
  Q 16.60 65.21 16.53 65.37
  Q 14.40 69.96 12.50 74.66
  Q 12.43 74.84 12.27 74.73
  Q 12.17 74.68 12.15 74.50
  L 16.29 64.96
  Z"
/>
<path fill="#807e84" fill-opacity="0.996" d="
  M 120.41 79.29
  C 116.73 75.03 112.55 71.29 107.54 68.66
  Q 105.67 67.68 103.94 66.41
  C 109.49 67.14 117.34 74.70 120.63 78.64
  Q 120.96 79.04 120.41 79.29
  Z"
/>
<path fill="#807e84" fill-opacity="0.996" d="
  M 76.51 66.64
  Q 70.41 70.28 65.65 74.89
  Q 65.48 74.25 66.38 73.38
  Q 71.34 68.56 76.51 66.64
  Z"
/>
<path fill="#807e84" fill-opacity="0.996" d="
  M 21.42 67.36
  Q 18.30 74.76 16.14 82.31
  Q 15.18 85.66 15.02 89.11
  Q 14.88 92.00 14.31 94.82
  Q 13.49 98.85 14.03 102.26
  Q 15.38 110.80 15.53 114.52
  Q 15.14 113.68 14.91 112.70
  Q 12.31 101.33 13.95 89.75
  Q 15.69 77.46 21.42 67.36
  Z"
/>
<path fill="#807e84" fill-opacity="0.996" d="
  M 60.54 72.23
  Q 54.21 81.45 52.76 92.51
  Q 52.40 95.23 52.75 104.73
  Q 53.16 115.71 60.64 125.86
  Q 60.85 126.14 60.81 126.17
  Q 60.73 126.28 60.32 126.39
  Q 55.00 119.60 52.95 111.06
  Q 52.83 110.58 52.37 106.76
  C 52.12 104.74 51.29 103.01 51.29 101.06
  Q 51.30 90.85 54.86 81.29
  Q 56.80 76.10 60.54 72.23
  Z"
/>
<path fill="#807e84" fill-opacity="0.996" d="
  M 65.27 75.44
  Q 61.30 80.17 59.04 88.51
  Q 56.13 99.29 58.33 107.24
  Q 58.99 109.65 59.35 111.21
  Q 59.96 113.92 60.48 115.12
  Q 66.30 128.60 80.67 133.26
  Q 78.09 133.20 74.50 131.22
  Q 63.75 125.29 59.75 114.43
  Q 52.89 95.73 62.34 78.26
  Q 63.11 76.84 65.27 75.44
  Z"
/>
<path fill="#807e84" fill-opacity="0.996" d="
  M 11.84 75.86
  L 9.05 90.41
  Q 8.70 87.74 9.21 85.46
  Q 9.87 82.49 10.10 80.92
  Q 10.49 78.27 11.84 75.86
  Z"
/>
<path fill="#807e84" fill-opacity="0.996" d="
  M 9.04 108.36
  Q 10.20 113.05 11.16 117.70
  Q 12.31 123.31 13.79 126.87
  Q 26.08 156.39 56.36 167.87
  C 58.90 168.83 63.58 169.91 67.02 171.68
  Q 44.36 166.72 28.71 150.97
  Q 22.47 144.70 18.23 137.36
  Q 14.03 130.07 11.28 121.50
  Q 9.03 114.49 9.04 108.36
  Z"
/>
<path fill="#807e84" fill-opacity="0.996" d="
  M 15.79 116.09
  Q 17.07 119.53 18.20 122.82
  Q 19.63 127.00 20.87 129.46
  Q 30.19 147.97 48.97 159.08
  Q 34.64 152.00 25.43 138.79
  C 22.63 134.77 20.29 129.53 17.88 124.85
  Q 16.41 122.00 15.79 116.09
  Z"
/>
<path fill="#807e84" fill-opacity="0.996" d="
  M 149.48 148.85
  Q 150.22 147.06 151.28 146.04
  A 1.14 1.14 0.0 0 0 151.24 144.36
  L 123.76 119.94
  A 2.36 2.36 0.0 0 0 120.55 120.02
  C 117.41 123.09 112.68 128.49 108.25 129.73
  Q 115.36 125.15 120.77 118.71
  A 1.57 1.57 0.0 0 1 123.02 118.55
  Q 136.68 130.74 150.70 143.06
  C 153.50 145.52 151.50 147.20 149.48 148.85
  Z"
/>
<path fill="#807e84" fill-opacity="0.996" d="
  M 134.34 136.16
  L 122.72 126.63
  Q 122.27 126.26 121.84 126.66
  C 115.04 132.91 109.42 136.85 100.71 139.09
  Q 100.52 138.72 101.51 138.38
  Q 111.22 135.04 113.85 132.85
  Q 118.00 129.39 121.74 125.95
  A 1.04 1.04 0.0 0 1 123.15 125.95
  L 134.34 136.16
  Z"
/>
<path fill="#807e84" fill-opacity="0.996" d="
  M 61.08 126.83
  Q 68.76 135.39 80.82 138.85
  Q 76.49 138.78 73.09 136.55
  Q 72.17 135.94 71.28 135.66
  C 68.62 134.83 65.66 131.92 62.05 128.72
  C 61.46 128.20 61.22 127.54 61.08 126.83
  Z"
/>
<path fill="#807e84" fill-opacity="0.996" d="
  M 107.51 130.37
  Q 103.75 133.08 99.53 133.44
  L 107.51 130.37
  Z"
/>
<path fill="#807e84" fill-opacity="0.996" d="
  M 98.65 133.49
  Q 97.91 134.20 96.75 134.33
  Q 89.77 135.14 82.77 133.89
  Q 91.09 134.75 98.65 133.49
  Z"
/>
<path fill="#807e84" fill-opacity="0.996" d="
  M 141.56 142.76
  Q 137.73 140.53 134.98 136.70
  Q 138.78 139.12 141.56 142.76
  Z"
/>
<path fill="#807e84" fill-opacity="0.996" d="
  M 97.74 139.70
  L 92.73 140.17
  Q 94.98 139.26 97.74 139.70
  Z"
/>
<path fill="#807e84" fill-opacity="0.996" d="
  M 144.10 145.18
  Q 145.27 145.73 144.16 147.16
  Q 143.49 148.02 143.16 147.45
  Q 143.89 146.56 144.10 145.18
  Z"
/>
<path fill="#807e84" fill-opacity="0.996" d="
  M 142.51 147.99
  Q 142.83 148.45 141.88 149.38
  Q 132.37 158.69 120.09 163.13
  Q 112.06 166.04 107.46 167.10
  Q 101.14 168.54 94.09 167.88
  Q 107.01 167.32 118.76 162.85
  Q 119.23 162.66 119.73 162.76
  Q 120.67 162.95 121.25 162.29
  Q 121.52 161.98 121.87 161.80
  L 133.60 155.81
  Q 134.03 155.59 134.23 155.15
  Q 134.76 154.00 135.98 153.86
  A 0.94 0.93 -70.4 0 0 136.50 153.61
  L 142.51 147.99
  Z"
/>
<path fill="#807e84" fill-opacity="0.996" d="
  M 148.98 149.31
  Q 146.93 152.90 143.34 155.15
  C 142.16 155.89 141.56 157.02 140.38 157.86
  Q 128.73 166.17 115.15 170.62
  Q 113.78 171.08 109.27 171.66
  Q 112.78 170.35 116.38 169.30
  Q 121.15 167.92 123.47 166.91
  Q 137.86 160.65 148.98 149.31
  Z"
/>
<path fill="#807e84" fill-opacity="0.996" d="
  M 48.86 158.95
  Q 53.07 159.96 56.67 162.41
  Q 52.21 161.65 48.86 158.95
  Z"
/>
<path fill="#807e84" fill-opacity="0.996" d="
  M 58.30 162.63
  Q 67.41 166.10 77.33 167.31
  Q 70.90 168.08 65.01 165.43
  C 62.96 164.50 60.72 164.58 58.59 163.70
  Q 57.85 163.39 58.30 162.63
  Z"
/>
<path fill="#807e84" fill-opacity="0.996" d="
  M 97.51 173.63
  Q 90.00 174.66 82.39 173.73
  Q 90.00 172.97 97.51 173.63
  Z"
/>
</svg>
